<svg xmlns="http://www.w3.org/2000/svg" version="1.1" xmlns:xlink="http://www.w3.org/1999/xlink" width="2000" height="814" viewBox="0 0 2000 814"><svg xml:space="preserve" width="2000" height="814" data-version="2" data-id="lg_Ilu69HlhrXB6GgQjcI" viewBox="0 0 814 814" x="0" y="0"><rect width="100%" height="100%" fill="transparent"></rect><path fill="#00adb4" d="M565.35 83.923a152.143 152.143 0 1 0 152.016 152.016c0-83.862-68.154-152.016-152.016-152.016m0 278.696a126.807 126.807 0 0 1 0-253.36 126.807 126.807 0 0 1 0 253.36"></path><path fill="#00adb4" d="M566.87 121.928h-3.04a36.737 36.737 0 0 0-36.104 41.678l10.768 61.313a27.11 27.11 0 0 0 53.585.633l11.022-62.58a36.737 36.737 0 0 0-36.23-41.044m.126 99.824c-.254 1.773-3.04 2.407-3.42-.634l-10.768-61.186-.127-1.267c0-6.334 5.067-11.274 11.148-11.274h3.04c6.08 0 11.148 5.067 11.148 11.148v.76zm-1.647 52.192a38.004 38.004 0 1 0 0 76.008 38.004 38.004 0 0 0 0-76.008m0 50.672a12.668 12.668 0 1 1 0-25.336 12.668 12.668 0 0 1 0 25.336"></path><path fill="#00adb4" d="M793.374 284.078v-96.276l-33.317-7.728q-6.334-22.169-17.608-42.184l18.115-29.137-67.9-68.027-29.137 18.115a202.688 202.688 0 0 0-42.311-17.481l-7.728-33.444h-96.023l-7.854 33.444q-22.17 6.334-42.185 17.481L438.29 40.726l-68.027 67.9 18.115 29.137a202.688 202.688 0 0 0-17.482 42.311l-33.57 7.728v96.023l33.444 7.854 1.646 5.067-154.17 154.55h-83.608V311.188A114.139 114.139 0 0 0 121.97 83.924a114.139 114.139 0 0 0-12.668 227.264v165.444h83.482L74.972 594.444l-1.774 1.647-62.58 150.496q-2.66 6.207-2.66 12.921a33.824 33.824 0 0 0 46.872 31.29l150.369-62.706L375.33 557.707v134.281h102.104a114.139 114.139 0 0 0 227.264-12.668c0-20.269-5.447-39.397-14.822-55.993l49.152-49.025-17.988-17.988-46.238 46.365a113.632 113.632 0 0 0-197.368 63.973h-76.768V532.498l103.75-103.624 5.068 1.773 7.854 33.317h96.024l7.854-33.317A202.688 202.688 0 0 0 663.4 413.04l29.137 18.115 68.027-67.9-18.115-29.137a202.688 202.688 0 0 0 17.608-42.311zm-760.08-86.142a88.803 88.803 0 1 1 177.605.253 88.803 88.803 0 0 1-177.605-.253m557.392 392.708a88.676 88.676 0 0 1 66.254 29.896l-78.922 78.922-29.136-29.136-17.736 17.988 46.872 46.872 93.11-92.983q7.98 17.102 8.234 37.117a88.676 88.676 0 1 1-88.676-88.676M91.566 618.26l30.404 7.601v53.459h53.459l7.6 30.403-71.447 29.897-49.912-49.786zM44.95 767.363a8.614 8.614 0 0 1-11.782-7.855q0-1.52.634-3.167l17.228-41.297 35.09 35.09zm159.743-74.742-9.501-38.637h-30.023L282.98 536.172l-17.988-17.736-117.686 117.56v-30.024l-38.51-9.627 273.881-273.883q2.534 5.828 5.448 11.402L370.136 363l24.956 25.083-16.088 16.088 17.988 17.989 16.089-16.089 24.956 24.956 29.136-17.988q5.7 2.913 11.528 5.447zm534.463-421.844-1.9 7.474a177.352 177.352 0 0 1-20.522 49.405l-3.927 6.588 15.454 25.336-39.524 39.397-25.082-15.581-6.714 4.053a177.352 177.352 0 0 1-49.406 20.522l-7.6 1.9-6.714 28.757h-55.993l-6.714-28.756-7.6-1.9a177.352 177.352 0 0 1-49.406-20.523l-6.714-3.927-25.083 15.455-39.524-39.524 15.455-25.083-3.927-6.714a177.352 177.352 0 0 1-20.522-49.405l-1.9-7.6-28.757-6.715v-55.992l28.757-6.714 1.9-7.601q6.46-26.35 20.522-49.405l3.927-6.714-15.455-25.083 39.524-39.524 25.083 15.455 6.714-3.927a177.352 177.352 0 0 1 49.405-20.522l7.601-1.9 6.714-28.757h55.993l6.714 28.756 7.6 1.9q26.223 6.335 49.406 20.523l6.714 3.927 25.082-15.582 39.524 39.651-15.454 25.083 3.927 6.714a177.352 177.352 0 0 1 20.522 49.405l1.9 7.6 28.756 6.715v55.992z"></path><path fill="#00adb4" d="m163.648 257.602 17.988-17.988-41.804-41.678 41.804-41.678-17.988-17.988-41.678 41.804-41.678-41.804-17.988 17.988 41.804 41.678-41.804 41.678 17.988 17.988 41.678-41.804zm149.989 212.316 17.862-17.989 17.988 17.989L331.5 487.78zm-35.85 35.724 17.735-17.989 17.988 17.989-17.862 17.862zm71.574-71.701 16.975-16.975 17.988 17.862-17.102 17.101z"></path></svg></svg>