<svg width="12" height="15" viewBox="0 0 12 15" fill="none" xmlns="http://www.w3.org/2000/svg">
<path d="M8.24985 13.41C8.27985 13.635 8.20485 13.875 8.03235 14.0325C7.96297 14.102 7.88055 14.1572 7.78982 14.1948C7.69909 14.2325 7.60183 14.2518 7.5036 14.2518C7.40538 14.2518 7.30812 14.2325 7.21739 14.1948C7.12666 14.1572 7.04424 14.102 6.97485 14.0325L3.96735 11.025C3.8856 10.945 3.82344 10.8472 3.78571 10.7392C3.74798 10.6312 3.73571 10.516 3.74985 10.4025V6.5625L0.157354 1.965C0.0355603 1.80865 -0.0193955 1.61044 0.0044951 1.4137C0.0283857 1.21695 0.12918 1.03766 0.284854 0.915C0.427354 0.81 0.584854 0.75 0.749854 0.75H11.2499C11.4149 0.75 11.5724 0.81 11.7149 0.915C11.8705 1.03766 11.9713 1.21695 11.9952 1.4137C12.0191 1.61044 11.9641 1.80865 11.8424 1.965L8.24985 6.5625V13.41ZM2.27985 2.25L5.24985 6.045V10.185L6.74985 11.685V6.0375L9.71985 2.25H2.27985Z" fill="#F9F9F9"/>
</svg>
