<svg xmlns="http://www.w3.org/2000/svg" version="1.1" xmlns:xlink="http://www.w3.org/1999/xlink" width="1500" height="288" viewBox="0 0 1500 288"><svg xml:space="preserve" width="1500" height="288" data-version="2" data-id="lg_bNQlIs8F480wdabZc2" viewBox="0 0 553 288" x="0" y="0"><rect width="100%" height="100%" fill="transparent"></rect><path fill="#fff" d="M5.33 229.092h8.01v56.02H5.33zm20.78 48.32h25.94v-9.65H33.8q-1.6 0-3-.6-1.41-.61-2.45-1.64-1.03-1.04-1.64-2.44-.6-1.41-.6-3.01v-8.87q0-1.6.6-3.01.61-1.4 1.64-2.44 1.04-1.03 2.45-1.64 1.4-.6 3-.6h24.34v7.69H33.8v8.87h18.25q1.6 0 2.98.6 1.39.61 2.45 1.64 1.05 1.04 1.66 2.45.6 1.4.6 3v9.65q0 1.6-.6 3.01-.61 1.41-1.66 2.44-1.06 1.04-2.45 1.64-1.38.61-2.98.61H26.11zm44.8 0h25.94v-9.65H78.61q-1.6 0-3.01-.6-1.41-.61-2.44-1.64-1.04-1.04-1.64-2.44-.61-1.41-.61-3.01v-8.87q0-1.6.61-3.01.6-1.4 1.64-2.44 1.03-1.03 2.44-1.64 1.41-.6 3.01-.6h24.33v7.69H78.61v8.87h18.24q1.6 0 2.99.6 1.39.61 2.44 1.64 1.06 1.04 1.66 2.45.61 1.4.61 3v9.65q0 1.6-.61 3.01-.6 1.41-1.66 2.44-1.05 1.04-2.44 1.64-1.39.61-2.99.61H70.91zm45.63 0v-33.9h7.65v33.9h21.45v-33.9h7.7v41.6h-7.7v-7.03q-.12 1.44-.78 2.73-.67 1.29-1.7 2.25-1.04.95-2.36 1.5-1.33.55-2.82.55h-13.79q-1.56 0-2.96-.61-1.41-.6-2.45-1.64-1.03-1.03-1.64-2.44-.6-1.41-.6-3.01m84.8-26.21v17.03H173.8v9.18h27.54v7.7H173.8q-1.56 0-2.96-.61-1.41-.6-2.45-1.64-1.03-1.03-1.64-2.44-.6-1.41-.6-3.01v-26.21q0-1.6.6-3.01.61-1.4 1.64-2.44 1.04-1.03 2.45-1.64 1.4-.6 2.96-.6h19.85q1.6 0 3.01.6 1.4.61 2.44 1.64 1.03 1.04 1.64 2.44.6 1.41.6 3.01m-7.69 0H173.8v9.34h19.85zm40.47-14.1v-8.01h44.8v8.01h-18.4v48.01h-8v-48.01zm77.15 14.1h-15.86v33.91h-7.66v-41.6h7.66v7.34q.07-1.52.7-2.87.62-1.35 1.66-2.35 1.03-.99 2.4-1.56 1.37-.56 2.93-.56h8.17q1.6 0 2.98.6 1.39.61 2.44 1.64 1.06 1.04 1.66 2.44.61 1.41.61 3.01v7.03h-7.69zm17.26 26.21v-10.47q0-1.6.61-2.98.6-1.39 1.64-2.45 1.03-1.05 2.44-1.66 1.4-.6 2.97-.6h19.84v-8.05h-25.12v-7.69h25.12q1.6 0 3.01.6 1.4.61 2.44 1.64 1.04 1.04 1.64 2.44.61 1.41.61 3.01v33.91h-7.7v-7.03q-.12 1.44-.78 2.73t-1.7 2.25q-1.03.95-2.36 1.5-1.33.55-2.82.55h-12.18q-1.57 0-2.97-.61-1.41-.6-2.44-1.64-1.04-1.03-1.64-2.44-.61-1.41-.61-3.01m7.66-10.47v10.47h19.84v-10.47zm67.85-15.74h-19.85v26.21h19.85v-7.03h7.69v7.03q0 1.6-.6 3.01-.61 1.41-1.64 2.44-1.04 1.04-2.44 1.64-1.41.61-3.01.61h-19.85q-1.56 0-2.96-.61-1.41-.6-2.45-1.64-1.03-1.03-1.64-2.44-.6-1.41-.6-3.01v-26.21q0-1.6.6-3.01.61-1.4 1.64-2.44 1.04-1.03 2.45-1.64 1.4-.6 2.96-.6h19.85q1.6 0 3.01.6 1.4.61 2.44 1.64 1.03 1.04 1.64 2.44.6 1.41.6 3.01v7.03h-7.69zm58.83 33.91h-10.82l-19.85-17.78v17.78h-7.65v-57.62h7.65v32.42l18.24-16.4h10.83l-22.35 20.07zm40.78-33.91v17.03h-27.54v9.18h27.54v7.7h-27.54q-1.56 0-2.97-.61-1.41-.6-2.44-1.64-1.04-1.03-1.64-2.44-.61-1.41-.61-3.01v-26.21q0-1.6.61-3.01.6-1.4 1.64-2.44 1.03-1.03 2.44-1.64 1.41-.6 2.97-.6h19.84q1.6 0 3.01.6 1.41.61 2.44 1.64 1.04 1.04 1.64 2.44.61 1.41.61 3.01m-7.7 0h-19.84v9.34h19.84zm44.03 0h-15.86v33.91h-7.66v-41.6h7.66v7.34q.07-1.52.7-2.87.62-1.35 1.66-2.35 1.04-.99 2.4-1.56 1.37-.56 2.93-.56h8.17q1.6 0 2.98.6 1.39.61 2.45 1.64 1.05 1.04 1.66 2.44.6 1.41.6 3.01v7.03h-7.69zM273.665 143.538v-29.79l-5.626 5.626v29.79h17.019a30.943 30.943 0 0 1 0-5.626zM211.779 70.4q-1.406 0-2.813-.14v31.083h18.538l5.626-5.626h-18.538V70.259q-1.406.141-2.813.141m90.86 77.92 3.938-3.938 6.47 6.442 21.491-21.492a25.317 25.317 0 0 0-18.678-8.298 25.345 25.345 0 0 0 0 50.634 25.317 25.317 0 0 0 22.026-37.75l-24.839 24.838zm-90.86-83.546a25.345 25.345 0 0 0 0-50.634 25.345 25.345 0 0 0 0 50.634m-13.221-34.6 3.938-3.938 9.283 9.255 9.283-9.283L225 30.202l-9.227 9.255 9.283 9.283-3.994 3.938-9.283-9.227-9.283 9.283-3.938-3.994 9.227-9.283zm146.276 88.89-10.296 10.268q1.941 2.11 3.376 4.586L348.8 123.03zm-133.055 27.287v-11.87l-6.78-1.689-6.61 15.894 11.083 11.055 15.866-6.61-1.688-6.78zm-19.55 17.103-.141.703c0 1.294 1.407 2.25 2.616 1.744l9.142-3.825-7.792-7.792zm96.232-76.232-6.47 4.022-5.57-5.541-3.572 3.572-3.994-3.994 3.6-3.573-5.57-5.541 4.023-6.47q-.675-1.294-1.237-2.56l-60.818 60.817 8.552 2.138v6.667l26.16-26.161 3.94 3.994-26.106 26.133h6.667l2.138 8.552 60.817-60.818q-1.294-.562-2.531-1.237m-38.173 24.557-3.994-3.994 3.994-3.967 3.966 3.967zm7.96-7.96-3.994-3.995 3.995-3.938 3.966 3.938zm7.934-7.961-3.967-3.967 3.77-3.797 3.994 3.994zm44.023-76.092a28.158 28.158 0 0 0 0 56.26 28.158 28.158 0 0 0 0-56.26m0 53.447a8.439 8.439 0 1 1 0-16.878 8.439 8.439 0 0 1 0 16.878m8.383-41.52-2.448 13.896a6.02 6.02 0 0 1-11.899-.14l-2.39-13.615-.085-1.125c0-4.501 3.657-8.13 8.101-8.13h.676a8.158 8.158 0 0 1 8.045 9.114"></path><path fill="#fff" d="m348.856 40.188-.421-1.687Q347 32.65 343.877 27.53l-.872-1.463 3.432-5.626-8.776-8.748-5.57 3.46-1.49-.9a39.382 39.382 0 0 0-10.972-4.558l-1.687-.421-1.491-6.386h-12.434l-1.49 6.386-1.688.421a39.382 39.382 0 0 0-10.971 4.558l-1.491.872-5.57-3.46-8.776 8.804 3.432 5.57-.872 1.49a39.382 39.382 0 0 0-4.558 10.972l-.421 1.687-6.386 1.491v12.434l6.386 1.49.421 1.688q1.435 5.851 4.558 10.971l.872 1.491-3.432 5.57 8.776 8.776 5.57-3.432 1.49.872q5.149 3.123 10.972 4.558l1.687.421 1.491 6.386h12.434l1.49-6.386 1.688-.421a39.382 39.382 0 0 0 10.971-4.558l1.491-.872 5.57 3.432 8.776-8.776-3.432-5.57.872-1.49a39.382 39.382 0 0 0 4.558-10.972l.421-1.687 6.386-1.491V41.679zm-38.622 41.464a33.784 33.784 0 1 1 33.756-33.756c0 18.622-15.134 33.756-33.756 33.756"></path><path fill="#fff" d="M310.572 28.206h-.676a2.532 2.532 0 0 0-2.447 2.785l2.391 13.615c.085.675.703.534.76.14l2.447-13.896v-.169a2.497 2.497 0 0 0-2.475-2.475"></path><circle r="1" fill="#fff" transform="translate(310.234 64.774)scale(2.813)"></circle></svg></svg>